HIERARCHY
ROOT Hips
{
	OFFSET 0.000000 0.000000 0.000000
	CHANNELS 6 Xposition Yposition Zposition Zrotation Yrotation Xrotation 
	JOINT LHipJoint
	{
		OFFSET 0.000000 0.000000 0.000000
		CHANNELS 3 Zrotation Yrotation Xrotation
		JOINT LeftUpLeg
		{
			OFFSET 1.363060 -1.794630 0.839290
			CHANNELS 3 Zrotation Yrotation Xrotation
			JOINT LeftLeg
			{
				OFFSET 2.448110 -6.726130 0.000000
				CHANNELS 3 Zrotation Yrotation Xrotation
				JOINT LeftFoot
				{
					OFFSET 2.562200 -7.039590 0.000000
					CHANNELS 3 Zrotation Yrotation Xrotation
					JOINT LeftToeBase
					{
						OFFSET 0.157640 -0.433110 2.322550
						CHANNELS 3 Zrotation Yrotation Xrotation
						End Site
						{
							OFFSET 0.000000 0.000000 0.000000
						}
					}
				}
			}
		}
	}
	JOINT RHipJoint
	{
		OFFSET 0.000000 0.000000 0.000000
		CHANNELS 3 Zrotation Yrotation Xrotation
		JOINT RightUpLeg
		{
			OFFSET -1.305520 -1.794630 0.839290
			CHANNELS 3 Zrotation Yrotation Xrotation
			JOINT RightLeg
			{
				OFFSET -2.542530 -6.985550 0.000000
				CHANNELS 3 Zrotation Yrotation Xrotation
				JOINT RightFoot
				{
					OFFSET -2.568260 -7.056230 0.000000
					CHANNELS 3 Zrotation Yrotation Xrotation
					JOINT RightToeBase
					{
						OFFSET -0.164730 -0.452590 2.363150
						CHANNELS 3 Zrotation Yrotation Xrotation
						End Site
						{
							OFFSET 0.000000 0.000000 0.000000
						}
					}
				}
			}
		}
	}
	JOINT LowerBack
	{
		OFFSET 0.000000 0.000000 0.000000
		CHANNELS 3 Zrotation Yrotation Xrotation
		JOINT Spine
		{
			OFFSET 0.028270 2.035590 -0.193380
			CHANNELS 3 Zrotation Yrotation Xrotation
			JOINT Spine1
			{
				OFFSET 0.056720 2.048850 -0.042750
				CHANNELS 3 Zrotation Yrotation Xrotation
				JOINT Neck
				{
					OFFSET 0.000000 0.000000 0.000000
					CHANNELS 3 Zrotation Yrotation Xrotation
					JOINT Neck1
					{
						OFFSET -0.054170 1.746240 0.172020
						CHANNELS 3 Zrotation Yrotation Xrotation
						JOINT Head
						{
							OFFSET 0.104070 1.761360 -0.123970
							CHANNELS 3 Zrotation Yrotation Xrotation
							End Site
							{
								OFFSET 0.000000 0.000000 0.000000
							}
						}
					}
				}
				JOINT LeftShoulder
				{
					OFFSET 0.000000 0.000000 0.000000
					CHANNELS 3 Zrotation Yrotation Xrotation
					JOINT LeftArm
					{
						OFFSET 3.362410 1.200890 -0.311210
						CHANNELS 3 Zrotation Yrotation Xrotation
						JOINT LeftForeArm
						{
							OFFSET 4.983000 -0.000000 -0.000000
							CHANNELS 3 Zrotation Yrotation Xrotation
							JOINT LeftHand
							{
								OFFSET 3.483560 -0.000000 -0.000000
								CHANNELS 3 Zrotation Yrotation Xrotation
								JOINT LeftFingerBase
								{
									OFFSET 0.000000 0.000000 0.000000
									CHANNELS 3 Zrotation Yrotation Xrotation
									JOINT LeftHandIndex1
									{
										OFFSET 0.715260 -0.000000 -0.000000
										CHANNELS 3 Zrotation Yrotation Xrotation
										End Site
										{
											OFFSET 0.000000 0.000000 0.000000
										}
									}
								}
								JOINT LThumb
								{
									OFFSET 0.000000 0.000000 0.000000
									CHANNELS 3 Zrotation Yrotation Xrotation
									End Site
									{
										OFFSET 0.000000 0.000000 0.000000
									}
								}
							}
						}
					}
				}
				JOINT RightShoulder
				{
					OFFSET 0.000000 0.000000 0.000000
					CHANNELS 3 Zrotation Yrotation Xrotation
					JOINT RightArm
					{
						OFFSET -3.136600 1.374050 -0.404650
						CHANNELS 3 Zrotation Yrotation Xrotation
						JOINT RightForeArm
						{
							OFFSET -5.241900 -0.000000 -0.000000
							CHANNELS 3 Zrotation Yrotation Xrotation
							JOINT RightHand
							{
								OFFSET -3.444170 -0.000000 -0.000000
								CHANNELS 3 Zrotation Yrotation Xrotation
								JOINT RightFingerBase
								{
									OFFSET 0.000000 0.000000 0.000000
									CHANNELS 3 Zrotation Yrotation Xrotation
									JOINT RightHandIndex1
									{
										OFFSET -0.622530 -0.000000 -0.000000
										CHANNELS 3 Zrotation Yrotation Xrotation
										End Site
										{
											OFFSET 0.000000 0.000000 0.000000
										}
									}
								}
								JOINT RThumb
								{
									OFFSET 0.000000 0.000000 0.000000
									CHANNELS 3 Zrotation Yrotation Xrotation
									End Site
									{
										OFFSET 0.000000 0.000000 0.000000
									}
								}
							}
						}
					}
				}
			}
		}
	}
}
MOTION
Frames: 4
Frame Time: 0.008333
-1.724649 17.467076 -6.459021 0.740233 3.284866 -2.213696 14.204097 0.801676 -0.485303 -28.634977 -11.544208 -26.157321 6.999729 21.352206 57.859740 0.018819 0.197898 1.675684 0.085500 1.886600 5.192200 -16.329192 -0.963158 -3.701881 43.143625 12.376794 4.679487 0.415505 -10.308224 27.619530 -1.168163 -1.405371 -20.232258 -3.810100 -11.903400 35.391000 -1.595163 1.277462 13.859342 0.312169 1.155624 2.163390 3.370568 1.352068 -14.464479 -7.494889 -7.664635 -11.717730 6.271611 -10.018650 13.179796 1.100600 -4.573800 7.928600 -8.414511 0.132129 -0.205065 -77.717245 13.902052 29.229858 11.160111 -27.898005 -2.530043 -0.126592 2.840234 -1.320966 4.592389 22.106219 1.540400 -7.125000 0.000000 0.000000 -22.612400 47.925300 -1.714700 10.703152 0.887699 -0.312418 65.306128 -7.831198 21.923382 -11.683301 31.047377 -2.746802 -0.565975 0.505602 9.777803 -10.530692 18.612976 -3.122300 7.125000 0.000000 0.000000 11.894700 -11.773200 9.428000
-1.718867 17.472996 -6.367957 0.698019 3.139026 -2.287555 14.126381 0.774639 -0.461582 -28.522726 -11.868073 -26.124279 6.434969 21.067548 56.286618 0.011506 0.404719 1.376702 0.058695 1.542452 4.243070 -16.273728 -0.978097 -3.781276 43.195616 12.013149 5.349018 0.482460 -10.087826 27.176044 -1.171382 -1.391941 -20.197018 -3.732262 -11.794956 35.011026 -1.486112 1.313796 13.805343 0.292322 1.220774 2.199983 3.296555 1.371044 -14.381099 -7.552954 -7.634432 -11.559379 6.314859 -9.983905 13.065110 1.136941 -4.565810 7.857592 -8.418226 0.135583 -0.205857 -77.776813 13.995499 29.198477 11.219427 -27.972355 -2.541520 -0.094630 2.781329 -1.244203 4.815559 21.528540 1.562888 -7.125000 0.000000 0.000000 -22.206910 47.472836 -1.424806 10.721247 0.867998 -0.306859 65.194792 -7.658345 22.256106 -11.874339 31.244743 -2.794673 -0.579719 0.492264 9.552036 -10.615668 18.625797 -3.150974 7.125000 0.000000 0.000000 11.845794 -11.740403 9.395654
-1.710741 17.481074 -6.274056 0.660569 2.929033 -2.367900 14.044739 0.749581 -0.442921 -28.414008 -12.166360 -26.026997 5.867827 20.756453 54.689525 0.001602 0.632064 1.034493 0.035932 1.199747 3.298791 -16.215009 -0.993120 -3.860544 43.222945 11.656281 6.040135 0.550679 -9.857570 26.712219 -1.171126 -1.360982 -20.118383 -3.639383 -11.663617 34.553275 -1.377657 1.366893 13.730327 0.274102 1.307795 2.249670 3.219892 1.398893 -14.269981 -7.583711 -7.599335 -11.468271 6.306723 -9.937705 12.990315 1.146405 -4.551931 7.809248 -8.423875 0.138979 -0.206597 -77.844677 14.085238 29.181216 11.304168 -28.080274 -2.563872 -0.079279 2.758524 -1.237261 4.951344 21.296364 1.585867 -7.125000 0.000000 0.000000 -22.004782 47.296026 -1.307644 10.743616 0.849178 -0.301523 65.067044 -7.492386 22.612310 -12.091234 31.465179 -2.847136 -0.587623 0.478110 9.312732 -10.621129 18.632881 -3.154790 7.125000 0.000000 0.000000 11.844639 -11.720337 9.399741
-1.699728 17.491812 -6.176660 0.628988 2.640012 -2.456234 13.958260 0.726962 -0.430493 -28.309639 -12.433139 -25.850577 5.297751 20.412792 53.062902 -0.011493 0.884694 0.639034 0.018148 0.858821 2.360486 -16.152279 -1.008247 -3.939657 43.219890 11.307760 6.757842 0.620457 -9.615170 26.223339 -1.166592 -1.308427 -19.986289 -3.527975 -11.504076 33.999713 -1.269936 1.440640 13.629418 0.257886 1.421759 2.315488 3.139966 1.437675 -14.124692 -7.580828 -7.558210 -11.459998 6.235291 -9.877395 12.964660 1.122757 -4.530796 7.788822 -8.431907 0.142301 -0.207273 -77.922759 14.170410 29.181349 11.420228 -28.229547 -2.599620 -0.084394 2.780191 -1.316329 4.979483 21.489808 1.609450 -7.125000 0.000000 0.000000 -22.053172 47.458790 -1.403265 10.771251 0.831444 -0.296462 64.919075 -7.334919 22.997437 -12.339982 31.714034 -2.905256 -0.588332 0.462951 9.056752 -10.528638 18.632896 -3.127985 7.125000 0.000000 0.000000 11.902308 -11.715955 9.448712
